# xmcd
#
# Track frame offsets:
#	150
#	19830
#	38022
#	49612
#	64815
#	80140
#	95952
#	112907
#	128420
#	148930
#	173625
#	187237
#	205790
#	221137
#	235527
#	255507
#	275185
#
# Disc length: 3871
#
# Revision: 1
# Processed by: cddbd v1.5.1PL0 Copyright (c) Steve Scherf et al.
# Submitted via: dBpowerAMP V4.0
# Normalized: r0:TDELIM( - )
#
DISCID=fb0f1d11
DTITLE=Various Artist - That's Country CD1 of 2
DYEAR=1900
DGENRE=
TTITLE0=Mavericks - Dance The Night Away
TTITLE1=Trisha Yearwood - How Do I Live
TTITLE2=Steve Earle - Guitar Town
TTITLE3=Alison Krauss and Union Station - So Long, So Wrong
TTITLE4=Vince Gill - You And You Alone
TTITLE5=Reba McEntire - What If
TTITLE6=Delbert McClinton - Sending Me Angels
TTITLE7=Mark Chesnutt - Thank God For Believers
TTITLE8=Willie Nelson and Bob Dylan - Heartland
TTITLE9=Kathy Mattea - Love Travels
TTITLE10=Highwaymen - Highwaymen
TTITLE11=Patty Loveless - You Don't Seem To Miss Me
TTITLE12=Billy Ray Cyrus - Achy Breaky Heart
TTITLE13=George Strait - Today My World Slipped Away
TTITLE14=John Hiatt - Georgia Rae
TTITLE15=Alan Jackson - Between The Devil And Me
TTITLE16=Travis Tritt - Still In Love With You
EXTD=
EXTT0=
EXTT1=
EXTT2=
EXTT3=
EXTT4=
EXTT5=
EXTT6=
EXTT7=
EXTT8=
EXTT9=
EXTT10=
EXTT11=
EXTT12=
EXTT13=
EXTT14=
EXTT15=
EXTT16=
PLAYORDER=
